<?xml version="1.0" standalone="yes"?>
<svg xmlns="http://www.w3.org/2000/svg" width="2466" height="2330">
<path style="fill:#f9fff9; stroke:none;" d="M1456 0C1446.68 40.6567 1428.52 86.3098 1392 109.564C1367.79 124.982 1340.7 129.623 1315 141L1315 142C1348.69 146.957 1389.43 165.426 1412.96 190C1434.72 212.724 1451.42 251.896 1456 283L1458 283C1462.59 251.791 1479.22 212.815 1501.04 190C1524.54 165.422 1565.31 146.956 1599 142L1599 141C1559.42 123.477 1519.76 118.38 1491.9 81C1479.75 64.7046 1472.33 45.0383 1465.7 26C1463.22 18.9004 1462.11 4.58984 1456 0M1820 383C1828.13 393.593 1842.55 401.636 1853 410C1876 428.402 1900.58 447.629 1920.83 469.039C1965 515.738 1958.12 589.34 1940 646C1920.95 620.902 1898.23 598.234 1876 576C1829.13 529.133 1778.2 486.466 1723 449.667C1644.45 397.298 1559.08 354.124 1469 325.344C1164.09 227.927 827.207 274.921 563 457.026C480.354 513.989 406.46 583.678 343.8 662C279.377 742.527 226.268 833.542 189.576 930C177.586 961.519 161.528 996.404 157 1030C162.685 1025.16 166.071 1017.28 170.053 1011C177.14 999.833 184.52 988.888 192.025 978C213.706 946.547 237.619 916.388 263.169 888C347.847 793.915 450.46 716.883 565 662.781C859.287 523.777 1215.77 551.131 1485 734.344C1582.87 800.946 1667.85 885.552 1735.03 983C1776.98 1043.86 1816.97 1112.36 1840 1183C1846.73 1179.86 1851.8 1173.2 1857 1168C1867.33 1157.67 1877.71 1147.37 1888 1137C1924.44 1100.3 1960.51 1063.37 1995.17 1025C2085.84 924.615 2172.33 819.887 2245.69 706C2286.86 642.087 2324.88 575.38 2351.58 504C2362.96 473.56 2371.8 442.203 2376.42 410C2379.33 389.719 2379.79 369.305 2377 349C2375.21 335.966 2371.85 322.929 2366.22 311C2330.3 234.918 2232.24 238.024 2162 249.753C2148.24 252.051 2134.53 254.991 2121 258.374C2104.51 262.495 2088.32 267.443 2072 272.141C2051.36 278.084 2031.06 285.792 2011 293.424C1946.27 318.048 1879.16 346.791 1820 383z"/>
<path style="fill:#b3dfff; stroke:none;" d="M934 726L934 727L940 727L934 726M373 1838L374 1838C381.95 1865.02 416.462 1869.59 440 1871.83C462.15 1873.94 485.95 1870.28 508 1868.17C544.265 1864.7 581.163 1862.01 617 1855C641.211 1850.27 659.357 1839.53 665.112 1814C676.522 1763.39 627.13 1731.36 586 1717.67C547.042 1704.69 505.692 1701.24 468 1684.14C418.579 1661.71 385.215 1611.36 372.375 1560C367.738 1541.45 364.779 1521.14 366.09 1502C374.119 1384.76 482.63 1303.81 596 1303C676.448 1302.44 752.564 1347.13 803.573 1407C890.076 1508.53 899.794 1648.18 863.576 1772C846.814 1829.3 816.886 1881.71 797.344 1938C777.535 1995.06 771.741 2057.71 790.344 2116C798.857 2142.67 810.029 2167.21 824.808 2191C840.883 2216.87 862.448 2239.58 886 2258.74C966.993 2324.61 1082.66 2345.19 1183 2320.1C1248.34 2303.77 1311.4 2268.07 1367 2231C1449.18 2176.21 1524.02 2111.8 1584.12 2033C1679.21 1908.31 1727.47 1756.98 1738.09 1602C1741.4 1553.74 1740.86 1501.68 1732 1454C1714.9 1461.38 1698.89 1472.57 1682 1480.74C1649.84 1496.3 1610.79 1509.17 1575 1512L1575 1511C1606.36 1501.97 1635.48 1476.52 1658 1454C1747.08 1364.92 1765.31 1227.91 1734.27 1110C1722.8 1066.47 1707.29 1022.27 1685 983C1676.51 968.045 1663.09 943.445 1642.02 957.854C1626 968.802 1637.35 995.714 1638.83 1011C1641.62 1039.68 1638.36 1068.57 1629.33 1096C1625.46 1107.75 1619.19 1118.47 1615 1130C1601.55 1114.46 1590.6 1096.36 1578.12 1080C1558.74 1054.61 1537.67 1030.35 1515.91 1007C1444.11 929.92 1357.25 864.395 1263 817.27C1052.62 712.078 789.785 700.85 580 814.309C519.078 847.257 464.851 889.998 417.039 940C376.245 982.663 342.286 1032.64 315.258 1085C260.862 1190.39 247.087 1307.14 255.09 1424C258.696 1476.67 264.729 1529.25 267.039 1582C268.483 1614.98 270.843 1647.31 264.199 1680C247.855 1760.41 164.881 1775.05 105 1812.43C62.2868 1839.08 35.7873 1885.43 30.831 1935C29.0916 1952.4 29.6838 1971.19 35.0285 1988C41.7986 2009.3 65.0883 2022.2 86 2012.02C96.9517 2006.68 105.418 1997.19 115 1989.88C127.87 1980.07 142.155 1971.88 157 1965.42C210.949 1941.95 271.451 1933.57 321 1900.33C342.796 1885.71 365.831 1864.21 373 1838z"/>
<path style="fill:#f9fff9; stroke:none;" d="M2351 859C2345 874.668 2341.47 891.246 2331.24 905C2317.06 924.066 2293.94 931.774 2272 938L2272 939C2295.04 946.497 2319.01 953.818 2333.25 975C2342.08 988.133 2345.43 1003.47 2351 1018C2359.42 1004.62 2360.66 987.506 2370.04 974C2385.09 952.343 2407.49 948.686 2430 939C2424.48 934.872 2416.44 933.694 2410 931.319C2398.53 927.088 2386.91 921.512 2378.04 912.91C2362.05 897.411 2361.99 876.483 2351 859M2156 1102C2093.89 1161.44 2031.15 1220.4 1966 1276.58C1947.27 1292.73 1928.79 1309.18 1910 1325.27C1903.9 1330.49 1890.27 1338.3 1887.64 1346.04C1886.12 1350.53 1888.87 1357.43 1889.58 1362C1891.54 1374.64 1893.32 1387.3 1894.84 1400C1899.83 1441.6 1903.01 1484.08 1901.99 1526C1898.97 1649.12 1873.7 1771.75 1824.58 1885C1783.89 1978.78 1727.7 2068.05 1657.91 2143C1632.49 2170.3 1605.89 2196.19 1578 2220.95C1567.08 2230.64 1546.87 2241.26 1540 2254C1567.06 2246.6 1594.3 2230.82 1619 2217.78C1670.32 2190.7 1719.52 2160.73 1766 2125.87C1989.84 1957.99 2140.32 1698.75 2170.17 1420C2178.56 1341.57 2179.54 1262.41 2170.16 1184C2167.83 1164.6 2165.17 1145.27 2161.92 1126C2160.71 1118.81 2160.55 1107.79 2156 1102M78 1478C72.336 1502.48 61.3625 1528.21 39 1541.55C26.7462 1548.86 12.9024 1551.45 0 1557C10.4183 1564.79 26.4197 1566.25 38 1572.87C61.0984 1586.09 72.2241 1612.03 78 1637L79 1637C84.2558 1620.85 88.8345 1603.58 99.5177 1590C113.945 1571.66 136.362 1564.14 158 1558L158 1557C134.667 1549.41 109.859 1542.18 96.0656 1520C88.3472 1507.59 86.9004 1488.82 78 1478z"/>
<path style="fill:#ffffff; stroke:none;" d="M1572 1512L1573 1513L1572 1512z"/>
<path style="fill:#f9fff9; stroke:none;" d="M2351 1557C2340.7 1580.94 2336.63 1606.16 2319.54 1627C2298.08 1653.16 2266.89 1659.56 2237 1671C2243.62 1675.95 2254.18 1677.34 2262 1680C2275.59 1684.63 2289.2 1690.46 2301 1698.72C2332.14 1720.52 2337.08 1753.66 2351 1786C2361.77 1768.88 2363.78 1745.94 2374.45 1728C2394.19 1694.82 2430.73 1682.01 2466 1672L2466 1671C2431.64 1660.01 2396 1649.56 2375.81 1617C2368.68 1605.49 2363.36 1592.79 2359 1580C2356.47 1572.55 2355.21 1563.69 2351 1557z"/>
</svg>
