<svg width="512" height="512" viewBox="0 0 512 512" fill="none" xmlns="http://www.w3.org/2000/svg">
<g clip-path="url(#clip0)">
<g clip-path="url(#clip1)">
<path d="M138.667 478.667C136.021 478.667 133.44 477.664 131.456 475.872C129.259 473.845 128 471.008 128 468V169.333C128 166.347 129.259 163.488 131.456 161.461C133.675 159.435 136.576 158.411 139.605 158.709L502.272 190.709C507.776 191.2 512 195.808 512 201.333V436C512 441.525 507.776 446.155 502.272 446.624L139.605 478.624C139.285 478.645 138.987 478.667 138.667 478.667V478.667ZM149.333 180.981V456.352L490.667 426.229V211.104L149.333 180.981ZM501.333 436H501.547H501.333Z" fill="#10AEF2"/>
<path d="M138.667 478.666C137.813 478.666 136.96 478.56 136.085 478.346L8.08533 446.346C3.328 445.173 0 440.885 0 436V201.333C0 196.448 3.328 192.181 8.08533 190.986L136.085 158.986C141.717 157.514 147.584 161.034 149.013 166.752C150.443 172.448 146.987 178.25 141.248 179.68L21.3333 209.674V427.68L141.248 457.653C146.987 459.082 150.443 464.885 149.013 470.581C147.819 475.445 143.467 478.666 138.667 478.666V478.666Z" fill="#10AEF2"/>
<path d="M74.6667 462.667C68.7787 462.667 64 457.888 64 452V185.333C64 179.445 68.7787 174.667 74.6667 174.667C80.5547 174.667 85.3333 179.445 85.3333 185.333V452C85.3333 457.888 80.5547 462.667 74.6667 462.667Z" fill="#10AEF2"/>
<path d="M202.667 436C196.779 436 192 431.222 192 425.334V212C192 206.112 196.779 201.333 202.667 201.333C208.555 201.333 213.333 206.112 213.333 212V425.334C213.333 431.222 208.555 436 202.667 436Z" fill="#10AEF2"/>
<path d="M288.001 425.333C282.113 425.333 277.334 420.555 277.334 414.667V222.667C277.334 216.779 282.113 212 288.001 212C293.889 212 298.667 216.779 298.667 222.667V414.667C298.667 420.555 293.889 425.333 288.001 425.333Z" fill="#10AEF2"/>
<path d="M373.333 414.667C367.445 414.667 362.666 409.888 362.666 404V233.333C362.666 227.445 367.445 222.667 373.333 222.667C379.221 222.667 383.999 227.445 383.999 233.333V404C383.999 409.888 379.221 414.667 373.333 414.667Z" fill="#10AEF2"/>
<path d="M458.667 404C452.779 404 448 399.222 448 393.334V244C448 238.112 452.779 233.333 458.667 233.333C464.555 233.333 469.333 238.112 469.333 244V393.334C469.333 399.222 464.555 404 458.667 404Z" fill="#10AEF2"/>
</g>
</g>
<defs>
<clipPath id="clip0">
<rect width="512" height="512" fill="white"/>
</clipPath>
<clipPath id="clip1">
<rect width="512" height="512" fill="white" transform="translate(0 52)"/>
</clipPath>
</defs>
</svg>
