<svg width="512" height="512" viewBox="0 0 512 512" fill="none" xmlns="http://www.w3.org/2000/svg">
<g clip-path="url(#clip0)">
<g clip-path="url(#clip1)">
<path d="M461.284 320.508L384.792 315.043L334.238 230.828L308.964 188.66V176.981C308.972 164.305 298.702 154.024 286.027 154.016C283.187 154.012 280.37 154.539 277.726 155.563L205.038 183.602L210.53 165.168C214.866 149.672 207.831 133.246 193.624 125.692L136.589 95.0511C132.441 92.8245 127.273 94.2464 124.847 98.2816L41.1867 232.25L39.4211 231.227C35.1945 228.797 29.8 230.258 27.3742 234.485C27.3195 234.575 27.2727 234.664 27.2219 234.758L1.03049 284.067C-1.22733 288.325 0.346892 293.602 4.56174 295.934L323.097 472.485C324.405 473.207 325.874 473.586 327.37 473.586H459.034C488.273 473.559 511.972 449.864 511.999 420.621V374.965C511.905 346.356 489.816 322.637 461.284 320.508V320.508ZM366.343 318.618L356.261 321.981L277.273 219.282L297.577 204.035L366.343 318.618ZM135.652 114.586L185.273 141.219C192.152 144.856 195.589 152.77 193.554 160.278L186.261 184.856L135.589 154.469L118.042 143.938L135.652 114.586ZM83.386 198.836L87.9055 191.774L116.948 213.375C131.73 224.473 139.277 242.75 136.632 261.047L135.53 286.559L56.636 241.086L83.386 198.836ZM459.034 455.934H329.64L20.675 284.676L38.5149 251.133L331.034 419.446C332.378 420.219 333.898 420.625 335.448 420.621H494.343C494.343 440.121 478.534 455.934 459.034 455.934V455.934ZM494.343 402.965H337.804L277.257 368.106L297.613 347.352C300.976 343.825 300.843 338.235 297.312 334.871C293.855 331.575 288.402 331.629 285.007 334.993L261.456 359.004L227.909 339.672L261.554 312.758C265.359 309.711 265.976 304.153 262.929 300.344C259.882 296.539 254.323 295.922 250.519 298.969L211.472 330.211L182.73 313.684L226.339 277.34C230.089 274.219 230.597 268.653 227.48 264.903C224.359 261.153 218.788 260.645 215.038 263.762L166.417 304.289L152.769 296.434L154.198 262.547C157.468 238.133 147.238 213.868 127.48 199.164L97.4016 176.801L108.765 158.961L186.905 205.844C187.956 206.45 189.12 206.825 190.323 206.95C190.534 206.95 190.718 207.02 190.933 207.035C191.144 207.055 191.277 207.098 191.445 207.098C192.534 207.102 193.62 206.903 194.64 206.508L284.062 172.02C285.698 171.395 287.53 171.61 288.98 172.594C290.433 173.59 291.296 175.243 291.284 177.008V186.719L259.503 210.551C255.605 213.481 254.82 219.016 257.749 222.91C257.769 222.938 257.788 222.965 257.808 222.989L346.085 337.75C348.366 340.739 352.3 341.942 355.866 340.743L380.679 332.469L460.007 338.137C479.312 339.567 494.269 355.606 494.343 374.965V402.965Z" fill="#10AEF2"/>
<path d="M52.9648 350H8.82812C3.95312 350 0 353.953 0 358.828C0 363.703 3.95312 367.656 8.82812 367.656H52.9648C57.8398 367.656 61.793 363.703 61.793 358.828C61.793 353.953 57.8398 350 52.9648 350Z" fill="#10AEF2"/>
<path d="M0 411.793C0 416.668 3.95312 420.621 8.82812 420.621H123.586C128.461 420.621 132.414 416.668 132.414 411.793C132.414 406.918 128.461 402.965 123.586 402.965H8.82812C3.95312 402.965 0 406.918 0 411.793Z" fill="#10AEF2"/>
<path d="M220.691 455.934H8.82812C3.95312 455.934 0 459.883 0 464.758C0 469.633 3.95312 473.586 8.82812 473.586H220.691C225.566 473.586 229.516 469.633 229.516 464.758C229.516 459.883 225.566 455.934 220.691 455.934Z" fill="#10AEF2"/>
</g>
</g>
<defs>
<clipPath id="clip0">
<rect width="512" height="512" fill="white"/>
</clipPath>
<clipPath id="clip1">
<rect width="512" height="512" fill="white" transform="translate(0 28)"/>
</clipPath>
</defs>
</svg>
