<svg width="512" height="512" viewBox="0 0 512 512" fill="none" xmlns="http://www.w3.org/2000/svg">
<path d="M275.334 40C253.641 40 236 57.641 236 79.3336V285.834C236 291.262 240.406 295.667 245.834 295.667C251.262 295.667 255.667 291.262 255.667 285.834V79.3336C255.667 68.4776 264.498 59.6673 275.334 59.6673C286.17 59.6673 295 68.4776 295 79.3336V285.834C295 291.262 299.406 295.667 304.834 295.667C310.262 295.667 314.667 291.262 314.667 285.834V79.3336C314.666 57.641 297.025 40 275.334 40Z" fill="#10AEF2"/>
<path d="M334.334 79.3335C312.641 79.3335 295 96.9745 295 118.666C295 124.094 299.406 128.5 304.834 128.5C310.262 128.5 314.667 124.094 314.667 118.666C314.667 107.81 323.498 98.9999 334.334 98.9999C345.169 98.9999 354 107.81 354 118.666V285.833C354 291.261 358.406 295.666 363.834 295.666C369.262 295.666 373.667 291.261 373.667 285.833V118.666C373.666 96.9745 356.025 79.3335 334.334 79.3335Z" fill="#10AEF2"/>
<path d="M393.334 138.333C371.641 138.333 354 155.974 354 177.667C354 183.095 358.406 187.501 363.834 187.501C369.262 187.501 373.668 183.095 373.668 177.667C373.668 166.811 382.498 158.001 393.334 158.001C404.17 158.001 413 166.81 413 177.666V384.166C413 443.796 364.483 492.333 304.834 492.333H248.175C203.197 492.333 161.346 467.631 136.173 426.194L61.1833 304.693C59.748 301.881 59.0003 298.852 59.0003 295.666C59.0003 278.635 82.109 268.212 95.3047 284.85L145.12 332.364C153.34 341.608 166.124 344.735 177.648 340.349C189.193 335.963 196.666 325.127 196.666 312.776V118.666C196.666 107.81 205.496 98.9998 216.332 98.9998C227.17 98.9998 236 107.81 236 118.666C236 124.094 240.406 128.5 245.834 128.5C251.262 128.5 255.668 124.094 255.668 118.666C255.668 96.9735 238.027 79.3325 216.334 79.3325C194.641 79.3334 177 96.9744 177 118.666V312.776C177 319.05 172.143 321.41 170.668 321.961C169.153 322.551 164.041 324.045 159.262 318.735L109.898 271.752C102.386 261.958 90.9986 256.333 78.6676 256.333C56.975 256.333 39.334 273.974 39.334 295.667C39.334 302.039 40.809 308.135 44.113 314.389L119.437 436.46C148.149 483.758 196.274 512 248.174 512H304.833C375.319 512 432.667 454.652 432.667 384.166V177.666C432.667 155.974 415.026 138.333 393.334 138.333Z" fill="#10AEF2"/>
</svg>
