<svg width="512" height="512" viewBox="0 0 512 512" fill="none" xmlns="http://www.w3.org/2000/svg">
<path d="M56 443H46C46 448.523 50.4772 453 56 453V443ZM456 443V453C461.523 453 466 448.523 466 443H456ZM46 331V443H66V331H46ZM56 453H456V433H56V453ZM466 443V331H446V443H466Z" fill="#10AEF2"/>
<path fill-rule="evenodd" clip-rule="evenodd" d="M259.817 93.7093C255.851 87.8469 247.217 87.8469 243.251 93.7093L180.25 186.839C175.757 193.48 180.515 202.442 188.533 202.442H238.001V377C238.001 382.523 242.478 387 248.001 387H255.001C260.523 387 265.001 382.523 265.001 377V202.442H314.535C322.553 202.442 327.31 193.48 322.818 186.839L259.817 93.7093Z" fill="#10AEF2"/>
</svg>
