<!--?xml version="1.0" encoding="iso-8859-1"?-->
<!-- Generator: Adobe Illustrator 18.0.0, SVG Export Plug-In . SVG Version: 6.00 Build 0)  -->

<svg version="1.1" id="Capa_1" xmlns="http://www.w3.org/2000/svg" xmlns:xlink="http://www.w3.org/1999/xlink" x="0px" y="0px" viewBox="0 0 452.549 452.549" style="enable-background:new 0 0 452.549 452.549;" xml:space="preserve" width="452.54901123046875" height="452.54901123046875">
<g>
	<path d="M33.394,236.459c4.143,0,7.5-3.358,7.5-7.5v-8.261c0-16.387,13.332-29.719,29.719-29.719
		c13.807,0,26.007,9.776,29.01,23.246c0.9,4.042,4.908,6.591,8.952,5.688c4.043-0.901,6.59-4.909,5.688-8.952
		c-4.519-20.27-22.876-34.982-43.65-34.982c-24.658,0-44.719,20.061-44.719,44.719v8.261
		C25.894,233.101,29.251,236.459,33.394,236.459z" class="svg-elem-1" fill="#10AEF2"></path>

	<path d="M115.331,288.666v-45.322c0-4.142-3.357-7.5-7.5-7.5s-7.5,3.358-7.5,7.5v45.322c0,16.387-13.331,29.719-29.718,29.719
		c-16.388,0-29.72-13.332-29.72-29.719v-35.971c0-4.142-3.357-7.5-7.5-7.5s-7.5,3.358-7.5,7.5v35.971
		c0,24.658,20.062,44.719,44.72,44.719C95.271,333.385,115.331,313.324,115.331,288.666z" class="svg-elem-2" fill="#10AEF2"></path>

	<path d="M81.938,272.422c4.143,0,7.5-3.358,7.5-7.5v-44.224c0-10.38-8.445-18.825-18.825-18.825s-18.825,8.445-18.825,18.825
		v67.968c0,10.38,8.445,18.825,18.826,18.825c10.38,0,18.824-8.445,18.824-18.825c0-4.142-3.357-7.5-7.5-7.5s-7.5,3.358-7.5,7.5
		c0,2.109-1.716,3.825-3.824,3.825c-2.109,0-3.826-1.716-3.826-3.825v-67.968c0-2.109,1.716-3.825,3.825-3.825
		s3.825,1.716,3.825,3.825v44.224C74.438,269.064,77.795,272.422,81.938,272.422z" class="svg-elem-3" fill="#10AEF2"></path>
	
 <path d="M381.943,150.089H253.015l-20.917-52.114c-1.457-3.631-5.466-5.531-9.194-4.366l-43.358,13.533
		c-3.734,1.166-5.946,5.006-5.079,8.821l7.752,34.126c0,0-111.551-0.004-111.606-0.004C31.677,150.085,0,181.762,0,220.698v67.968
		c0,38.904,31.625,70.559,70.517,70.61l311.426,0.006c38.932,0,70.605-31.678,70.605-70.616v-67.971
		C452.549,181.763,420.875,150.089,381.943,150.089z M15,288.666v-67.968c0-30.665,24.947-55.613,55.612-55.613
		s55.613,24.948,55.613,55.613v67.968c0,30.665-24.948,55.613-55.613,55.613S15,319.331,15,288.666z M437.549,288.666
		c0,30.667-24.944,55.616-55.605,55.616h-267.9c16.528-12.936,27.182-33.049,27.182-55.616v-67.968
		c0-22.563-10.65-42.673-27.173-55.609h71.573l3.043,13.396c0.79,3.48,3.883,5.84,7.307,5.84c0.55,0,1.109-0.061,1.668-0.188
		c4.039-0.918,6.57-4.936,5.652-8.975l-12.668-55.765l30.131-9.404l27.653,68.896c1.543,3.845,5.912,5.709,9.754,4.167
		c3.844-1.543,5.709-5.91,4.166-9.754l-3.296-8.213h122.908c30.661,0,55.605,24.944,55.605,55.605V288.666z" class="svg-elem-4" fill="#10AEF2"></path>
	
 <path d="M385.177,320.817h-14.564c-4.143,0-7.5,3.358-7.5,7.5s3.357,7.5,7.5,7.5h14.564c4.143,0,7.5-3.358,7.5-7.5
		S389.319,320.817,385.177,320.817z" class="svg-elem-5" fill="#10AEF2"></path>

	<path d="M333.392,320.817h-98.714c-4.143,0-7.5,3.358-7.5,7.5s3.357,7.5,7.5,7.5h98.714c4.143,0,7.5-3.358,7.5-7.5
		S337.534,320.817,333.392,320.817z" class="svg-elem-6" fill="#10AEF2"></path>

	<path d="M195.839,320.817h-45.313c-4.143,0-7.5,3.358-7.5,7.5s3.357,7.5,7.5,7.5h45.313c4.143,0,7.5-3.358,7.5-7.5
		S199.981,320.817,195.839,320.817z" class="svg-elem-7" fill="#10AEF2"></path>

	<path d="M406.214,284.001h-38.838c-4.143,0-7.5,3.358-7.5,7.5s3.357,7.5,7.5,7.5h38.838c4.143,0,7.5-3.358,7.5-7.5
		S410.356,284.001,406.214,284.001z" class="svg-elem-8" fill="#10AEF2"></path>

	<path d="M172.155,291.501c0,4.142,3.357,7.5,7.5,7.5h129.463c4.143,0,7.5-3.358,7.5-7.5s-3.357-7.5-7.5-7.5H179.655
		C175.513,284.001,172.155,287.359,172.155,291.501z" class="svg-elem-9" fill="#10AEF2"></path>

	<path d="M406.214,210.369h-27.511c-4.143,0-7.5,3.358-7.5,7.5s3.357,7.5,7.5,7.5h27.511c4.143,0,7.5-3.358,7.5-7.5
		S410.356,210.369,406.214,210.369z" class="svg-elem-10" fill="#10AEF2"></path>

	<path d="M171.564,225.369H335.01c4.143,0,7.5-3.358,7.5-7.5s-3.357-7.5-7.5-7.5H171.564c-4.143,0-7.5,3.358-7.5,7.5
		S167.422,225.369,171.564,225.369z" class="svg-elem-11" fill="#10AEF2"></path>

	<path d="M406.214,247.185H239.532c-4.143,0-7.5,3.358-7.5,7.5s3.357,7.5,7.5,7.5h166.682c4.143,0,7.5-3.358,7.5-7.5
		S410.356,247.185,406.214,247.185z" class="svg-elem-12" fill="#10AEF2"></path>

	<path d="M171.564,262.185h33.983c4.143,0,7.5-3.358,7.5-7.5s-3.357-7.5-7.5-7.5h-33.983c-4.143,0-7.5,3.358-7.5,7.5
		S167.422,262.185,171.564,262.185z" class="svg-elem-13" fill="#10AEF2"></path>

	<path d="M283.226,188.554h101.951c4.143,0,7.5-3.358,7.5-7.5s-3.357-7.5-7.5-7.5H283.226c-4.143,0-7.5,3.358-7.5,7.5
		S279.083,188.554,283.226,188.554z" class="svg-elem-14" fill="#10AEF2"></path>
</g>
<g>
</g>
<g>
</g>
<g>
</g>
<g>
</g>
<g>
</g>
<g>
</g>
<g>
</g>
<g>
</g>
<g>
</g>
<g>
</g>
<g>
</g>
<g>
</g>
<g>
</g>
<g>
</g>
<g>
</g>
</svg>
